# xmcd
#
# Track frame offsets:
#	150
#	18332
#	47916
#	75627
#	110740
#	141503
#	168935
#	190910
#	205826
#	227726
#	250088
#	263349
#	291400
#	324863
#
# Disc length: 4588 seconds
#
# Revision: 0
# Processed by: cddbd v1.5.2PL0 Copyright (c) Steve Scherf et al.
# Submitted via: dBpowerAMP V4.0
#
DISCID=c111ea0e
DTITLE=Horrible Crowes - Live at the Troubadour
DYEAR=2013
DGENRE=Blues
TTITLE0=Last Rites
TTITLE1=Sugar
TTITLE2=Behold the Hurricane
TTITLE3=I Witnessed a Crime
TTITLE4=Go Tell Everybody
TTITLE5=Cherry Blossoms
TTITLE6=Ladykiller
TTITLE7=Crush
TTITLE8=Teenage Dream
TTITLE9=Mary Ann
TTITLE10=Black Betty and the Moon
TTITLE11=Blood Loss
TTITLE12=I Believe Jesus Brought Us Together
TTITLE13=Never Tear Us Apart
EXTD=
EXTT0=
EXTT1=
EXTT2=
EXTT3=
EXTT4=
EXTT5=
EXTT6=
EXTT7=
EXTT8=
EXTT9=
EXTT10=
EXTT11=
EXTT12=
EXTT13=
PLAYORDER=
